<svg width="73" height="73" viewBox="0 0 73 73" fill="none" xmlns="http://www.w3.org/2000/svg">
<path d="M36 36.5C36 33.9804 37.0009 31.5641 38.7825 29.7825C40.5641 28.0009 42.9804 27 45.5 27C48.0196 27 50.4359 28.0009 52.2175 29.7825C53.9991 31.5641 55 33.9804 55 36.5C55 39.0196 53.9991 41.4359 52.2175 43.2175C50.4359 44.9991 48.0196 46 45.5 46C42.9804 46 40.5641 44.9991 38.7825 43.2175C37.0009 41.4359 36 39.0196 36 36.5V36.5Z" stroke="#4D505D" stroke-width="3.5"/>
<path d="M17 55.5C17 52.9804 18.0009 50.5641 19.7825 48.7825C21.5641 47.0009 23.9804 46 26.5 46H36V55.5C36 58.0196 34.9991 60.4359 33.2175 62.2175C31.4359 63.9991 29.0196 65 26.5 65C23.9804 65 21.5641 63.9991 19.7825 62.2175C18.0009 60.4359 17 58.0196 17 55.5Z" stroke="#4D505D" stroke-width="3.5"/>
<path d="M36 8V27H45.5C48.0196 27 50.4359 25.9991 52.2175 24.2175C53.9991 22.4359 55 20.0196 55 17.5C55 14.9804 53.9991 12.5641 52.2175 10.7825C50.4359 9.00089 48.0196 8 45.5 8H36Z" stroke="#4D505D" stroke-width="3.5"/>
<path d="M17 17.5C17 20.0196 18.0009 22.4359 19.7825 24.2175C21.5641 25.9991 23.9804 27 26.5 27H36V8H26.5C23.9804 8 21.5641 9.00089 19.7825 10.7825C18.0009 12.5641 17 14.9804 17 17.5Z" stroke="#4D505D" stroke-width="3.5"/>
<path d="M17 36.5C17 39.0196 18.0009 41.4359 19.7825 43.2175C21.5641 44.9991 23.9804 46 26.5 46H36V27H26.5C23.9804 27 21.5641 28.0009 19.7825 29.7825C18.0009 31.5641 17 33.9804 17 36.5Z" stroke="#4D505D" stroke-width="3.5"/>
</svg>
